<?xml version="1.0" encoding="UTF-8"?>
<svg xmlns="http://www.w3.org/2000/svg" xmlns:xlink="http://www.w3.org/1999/xlink" width="64px" height="64px" viewBox="0 0 64 64" version="1.1">
<g id="surface1">
<path style="fill-rule:nonzero;fill:rgb(98.039216%,36.078431%,36.078431%);fill-opacity:1;stroke-width:10;stroke-linecap:round;stroke-linejoin:round;stroke:rgb(83.529412%,29.803922%,29.803922%);stroke-opacity:1;stroke-miterlimit:4;" d="M 13.605469 5.003174 L 310.35498 5.003174 C 315.101074 5.003174 318.957275 8.859375 318.957275 13.605469 L 318.957275 310.35498 C 318.957275 315.101074 315.101074 318.957275 310.35498 318.957275 L 13.605469 318.957275 C 8.859375 318.957275 5.003174 315.101074 5.003174 310.35498 L 5.003174 13.605469 C 5.003174 8.859375 8.859375 5.003174 13.605469 5.003174 Z M 13.605469 5.003174 " transform="matrix(0.197531,0,0,0.197531,0,0)"/>
<path style=" stroke:none;fill-rule:nonzero;fill:rgb(100%,100%,100%);fill-opacity:1;" d="M 11.6875 43.496094 L 16.15625 43.496094 L 16.15625 56.742188 L 11.6875 56.742188 Z M 13.949219 42.417969 C 13.195312 42.417969 12.613281 42.230469 12.210938 41.855469 C 11.808594 41.476562 11.605469 40.976562 11.605469 40.347656 C 11.605469 39.753906 11.808594 39.25 12.210938 38.839844 C 12.613281 38.425781 13.195312 38.21875 13.949219 38.21875 C 14.703125 38.21875 15.28125 38.425781 15.683594 38.839844 C 16.089844 39.25 16.289062 39.753906 16.289062 40.347656 C 16.289062 40.972656 16.089844 41.476562 15.683594 41.855469 C 15.28125 42.230469 14.703125 42.417969 13.949219 42.417969 M 22.667969 57.011719 C 21.375 57.011719 20.402344 56.664062 19.746094 55.972656 C 19.09375 55.28125 18.765625 54.316406 18.765625 53.078125 L 18.765625 46.804688 L 16.988281 46.804688 L 16.988281 43.492188 L 18.765625 43.492188 L 18.765625 40.261719 L 23.234375 40.261719 L 23.234375 43.492188 L 26.140625 43.492188 L 26.140625 46.804688 L 23.234375 46.804688 L 23.234375 52.433594 C 23.234375 52.847656 23.320312 53.136719 23.488281 53.308594 C 23.660156 53.480469 23.925781 53.5625 24.285156 53.5625 C 24.769531 53.5625 25.296875 53.347656 25.871094 52.917969 L 26.894531 55.851562 C 26.375 56.210938 25.78125 56.496094 25.117188 56.699219 C 24.453125 56.90625 23.636719 57.011719 22.667969 57.011719 M 33.484375 57.011719 C 31.4375 57.011719 29.828125 56.425781 28.652344 55.261719 C 27.476562 54.09375 26.890625 52.398438 26.890625 50.171875 C 26.890625 48.558594 27.222656 47.203125 27.886719 46.105469 C 28.566406 44.976562 29.421875 44.210938 30.445312 43.816406 C 31.519531 43.40625 32.515625 43.199219 33.433594 43.199219 C 34.578125 43.199219 35.539062 43.429688 36.3125 43.886719 C 37.085938 44.34375 37.652344 44.839844 38.023438 45.378906 C 38.390625 45.917969 38.65625 46.339844 38.816406 46.644531 L 35.71875 48.636719 C 35.433594 48.046875 35.117188 47.578125 34.777344 47.238281 C 34.4375 46.898438 34.023438 46.726562 33.539062 46.726562 C 32.855469 46.726562 32.320312 46.996094 31.925781 47.535156 C 31.527344 48.070312 31.332031 48.886719 31.332031 49.984375 C 31.332031 51.167969 31.566406 52.039062 32.03125 52.59375 C 32.496094 53.152344 33.164062 53.429688 34.023438 53.429688 C 34.707031 53.429688 35.277344 53.304688 35.734375 53.054688 C 36.191406 52.800781 36.625 52.480469 37.039062 52.085938 L 38.464844 55.421875 C 38.035156 55.78125 37.398438 56.136719 36.554688 56.484375 C 35.710938 56.835938 34.6875 57.011719 33.484375 57.011719 M 39.867188 56.746094 L 39.867188 38.757812 L 44.363281 38.757812 L 44.363281 44.226562 C 44.738281 43.957031 45.199219 43.71875 45.734375 43.511719 C 46.273438 43.304688 46.921875 43.203125 47.675781 43.203125 C 49.253906 43.203125 50.433594 43.652344 51.214844 44.546875 C 51.996094 45.445312 52.386719 46.710938 52.386719 48.34375 L 52.386719 56.746094 L 47.890625 56.746094 L 47.890625 48.882812 C 47.890625 48.128906 47.746094 47.578125 47.460938 47.226562 C 47.171875 46.878906 46.796875 46.703125 46.328125 46.703125 C 45.933594 46.703125 45.566406 46.792969 45.226562 46.972656 C 44.882812 47.152344 44.597656 47.339844 44.363281 47.535156 L 44.363281 56.746094 Z M 39.867188 56.746094 "/>
<path style=" stroke:none;fill-rule:nonzero;fill:rgb(100%,100%,100%);fill-opacity:0.235294;" d="M 41.671875 7.023438 C 41.480469 6.976562 41.269531 6.964844 41.050781 7.003906 L 21.175781 10.28125 C 20.296875 10.425781 19.585938 11.253906 19.585938 12.136719 L 19.585938 32.089844 C 19.585938 32.972656 20.296875 33.566406 21.175781 33.421875 L 21.324219 33.394531 C 21.285156 33.269531 21.265625 33.132812 21.265625 32.988281 L 21.265625 13.035156 C 21.265625 12.152344 21.976562 11.324219 22.859375 11.179688 L 42.589844 7.945312 C 42.464844 7.480469 42.125 7.140625 41.671875 7.027344 Z M 41.671875 7.023438 "/>
<path style=" stroke:none;fill-rule:nonzero;fill:rgb(100%,100%,100%);fill-opacity:1;" d="M 22.859375 11.15625 C 21.976562 11.300781 21.265625 12.128906 21.265625 13.011719 L 21.265625 32.964844 C 21.265625 33.847656 21.976562 34.441406 22.859375 34.296875 L 42.8125 31.023438 C 43.695312 30.878906 44.40625 30.050781 44.40625 29.167969 L 44.40625 9.21875 C 44.40625 8.335938 43.695312 7.738281 42.8125 7.882812 Z M 28.5 16.664062 C 29.417969 16.511719 30.070312 17 30.300781 17.855469 L 35.375 17.023438 C 35.605469 16.089844 36.253906 15.390625 37.171875 15.238281 C 38.628906 15 40.230469 16.234375 40.734375 17.980469 L 41.929688 22.152344 C 42.429688 23.902344 41.644531 25.527344 40.1875 25.765625 C 38.90625 25.976562 37.515625 25.050781 36.855469 23.640625 L 28.816406 24.957031 C 28.15625 26.585938 26.765625 27.96875 25.484375 28.175781 C 24.027344 28.414062 23.242188 27.046875 23.742188 25.136719 L 24.9375 20.574219 C 25.4375 18.660156 27.039062 16.902344 28.5 16.664062 Z M 31.652344 18.742188 L 31.652344 20.375 L 30.34375 20.589844 L 31.589844 21.964844 L 32.835938 23.34375 L 34.082031 21.554688 L 35.328125 19.769531 L 34.101562 19.972656 L 34.101562 18.34375 Z M 31.652344 18.742188 "/>
</g>
</svg>
